<?xml version="1.0" encoding="utf-8"?>
<!-- Generator: Adobe Illustrator 20.0.0, SVG Export Plug-In . SVG Version: 6.00 Build 0)  -->
<svg version="1.1" id="Layer_1" xmlns="http://www.w3.org/2000/svg" xmlns:xlink="http://www.w3.org/1999/xlink" x="0px" y="0px"
	 viewBox="0 0 86.7 77.3" style="enable-background:new 0 0 86.7 77.3;" xml:space="preserve">
<style type="text/css">
	.st0{fill:#FFFFFF;}
</style>
<g>
	<path class="st0" d="M73.8,2.1h-61C6.8,2.1,1.9,7,1.9,13v51.4c0,6,4.9,10.9,10.9,10.9h61c6,0,10.9-4.9,10.9-10.9V13
		C84.7,7,79.8,2.1,73.8,2.1z M12.8,7.9h61c2.8,0,5.1,2.3,5.1,5.1v9.7H7.7V13C7.7,10.2,10,7.9,12.8,7.9z M73.8,69.5h-61
		c-2.8,0-5.1-2.3-5.1-5.1V28.6h71.2v35.8C78.9,67.2,76.6,69.5,73.8,69.5z"/>
	<path class="st0" d="M28.1,51.6H17.4c-1.6,0-2.9,1.3-2.9,2.9s1.3,2.9,2.9,2.9h10.7c1.6,0,2.9-1.3,2.9-2.9S29.7,51.6,28.1,51.6z"/>
	<path class="st0" d="M48.7,38.1H37.9c-1.6,0-2.9,1.3-2.9,2.9s1.3,2.9,2.9,2.9h10.7c1.6,0,2.9-1.3,2.9-2.9S50.3,38.1,48.7,38.1z"/>
	<path class="st0" d="M48.7,51.6H37.9c-1.6,0-2.9,1.3-2.9,2.9s1.3,2.9,2.9,2.9h10.7c1.6,0,2.9-1.3,2.9-2.9S50.3,51.6,48.7,51.6z"/>
	<path class="st0" d="M69.2,38.1H58.5c-1.6,0-2.9,1.3-2.9,2.9s1.3,2.9,2.9,2.9h10.7c1.6,0,2.9-1.3,2.9-2.9S70.8,38.1,69.2,38.1z"/>
	<path class="st0" d="M69.2,51.6H58.5c-1.6,0-2.9,1.3-2.9,2.9s1.3,2.9,2.9,2.9h10.7c1.6,0,2.9-1.3,2.9-2.9S70.8,51.6,69.2,51.6z"/>
	<circle class="st0" cx="20.6" cy="15.2" r="4.4"/>
	<circle class="st0" cx="66" cy="15.2" r="4.4"/>
</g>
</svg>
