<?xml version="1.0" encoding="utf-8"?>
<!-- Generator: Adobe Illustrator 20.0.0, SVG Export Plug-In . SVG Version: 6.00 Build 0)  -->
<svg version="1.1" id="Layer_1" xmlns="http://www.w3.org/2000/svg" xmlns:xlink="http://www.w3.org/1999/xlink" x="0px" y="0px"
	 viewBox="0 0 100 98" style="enable-background:new 0 0 100 98;" xml:space="preserve">
<style type="text/css">
	.st0{fill:#FFFFFF;stroke:#FFFFFF;stroke-width:2;stroke-miterlimit:10;}
</style>
<path class="st0" d="M50,96.3c-0.7,0-1.4,0-2.1,0c-1.6-0.1-3.2-0.2-4.8-0.5c-4.2-0.6-8.4-1.8-12.3-3.6c-4.7-2.1-9-4.9-12.8-8.4
	c-3.9-3.6-7.2-7.8-9.7-12.5c-2.1-4-3.7-8.3-4.6-12.8c-1-5.1-1.2-10.4-0.6-15.5c0.6-4.8,2-9.6,4-14c2.4-5.1,5.7-9.7,9.6-13.7
	c4.2-4.1,9.2-7.5,14.6-9.8c2.9-1.3,6-2.2,9.1-2.9c2.9-0.6,5.9-0.9,8.9-1c3,0,6,0.2,9,0.7c3.2,0.6,6.3,1.5,9.2,2.7
	c5.5,2.2,10.5,5.4,14.8,9.5c4.1,3.9,7.6,8.6,10.1,13.7c2.1,4.4,3.6,9.1,4.3,13.9c0.7,5.1,0.7,10.2-0.2,15.3
	c-0.8,4.5-2.3,8.8-4.3,12.9c-2.4,4.7-5.6,9.1-9.4,12.8c-3.8,3.6-8.1,6.6-12.9,8.8c-3.9,1.8-8,3.1-12.2,3.8c-1.5,0.2-3,0.4-4.4,0.5
	c-0.8,0.1-1.6,0.1-2.4,0.1C50.6,96.3,50.3,96.3,50,96.3z M50,91.7c0.6,0,1.3,0,1.9,0c1.4-0.1,2.9-0.2,4.3-0.4
	c3.8-0.6,7.6-1.6,11.1-3.2c4.3-1.9,8.3-4.6,11.8-7.8c3.5-3.3,6.5-7.1,8.7-11.4c1.9-3.5,3.2-7.4,4-11.3c0.9-4.6,1.1-9.4,0.5-14
	c-0.6-4.4-1.8-8.6-3.6-12.6c-2.1-4.6-5.1-8.8-8.7-12.3c-3.8-3.7-8.3-6.8-13.1-8.9c-2.7-1.1-5.4-2-8.2-2.6c-2.6-0.5-5.3-0.8-8-0.9
	c-2.7,0-5.4,0.2-8.1,0.7c-2.8,0.5-5.6,1.3-8.3,2.4c-4.9,2-9.5,4.9-13.4,8.6c-3.7,3.5-6.8,7.7-9.1,12.3c-1.9,3.9-3.2,8.2-3.9,12.5
	C7.1,47.4,7.2,52.2,8,56.8c0.7,4,2.1,8,4,11.6c2.1,4.2,5,8,8.4,11.3c3.3,3.2,7.2,5.9,11.4,7.9c3.5,1.7,7.2,2.8,11,3.5
	c1.3,0.2,2.7,0.4,4,0.5c0.7,0.1,1.5,0.1,2.2,0.1C49.3,91.7,49.6,91.7,50,91.7z"/>
<g>
	<path class="st0" d="M49.9,51.5c-0.2,0-0.2,0-0.4,0c-0.2,0-0.4-0.1-0.5-0.2c-0.7-0.3-1.2-0.9-1.5-1.6c-0.1-0.2-0.1-0.4-0.1-0.6
		c0-0.1,0-0.1,0-0.2v-35c0-0.2,0-0.2,0-0.4c0-0.2,0.1-0.5,0.2-0.7c0.1-0.3,0.3-0.5,0.5-0.8c0.2-0.2,0.4-0.3,0.6-0.4
		c0.7-0.4,1.6-0.4,2.3,0c0.2,0.1,0.4,0.3,0.6,0.4c0.4,0.3,0.6,0.8,0.7,1.3c0,0.1,0,0.2,0.1,0.4c0,0.1,0,0.1,0,0.2v35
		c0,0.1,0,0.1,0,0.2c0,0.2,0,0.4-0.1,0.6c-0.2,0.7-0.8,1.3-1.5,1.6c-0.2,0.1-0.4,0.1-0.5,0.2c-0.2,0-0.2,0-0.4,0
		C50.1,51.5,50,51.5,49.9,51.5z"/>
	<g transform="matrix(2.83277e-16,1,-0.622237,1.76265e-16,81.1655,-0.0695371)">
		<path class="st0" d="M48.9,52.5c-0.2,0-0.2,0-0.4,0c-0.2,0-0.4-0.1-0.5-0.2c-0.7-0.3-1.2-0.9-1.5-1.6c-0.1-0.2-0.1-0.4-0.1-0.6
			c0-0.1,0-0.1,0-0.2v-35c0-0.2,0-0.2,0-0.4c0-0.2,0.1-0.5,0.2-0.7c0.1-0.3,0.3-0.5,0.5-0.8c0.2-0.2,0.4-0.3,0.6-0.4
			c0.7-0.4,1.6-0.4,2.3,0c0.2,0.1,0.4,0.3,0.6,0.4c0.4,0.3,0.6,0.8,0.7,1.3c0,0.1,0,0.2,0.1,0.4c0,0.1,0,0.1,0,0.2v35
			c0,0.1,0,0.1,0,0.2c0,0.2,0,0.4-0.1,0.6c-0.2,0.7-0.8,1.3-1.5,1.6c-0.2,0.1-0.4,0.1-0.5,0.2c-0.2,0-0.2,0-0.4,0
			C49.1,52.5,49,52.5,48.9,52.5z"/>
	</g>
</g>
</svg>
